<?xml version="1.0" encoding="UTF-8"?>
<svg id="Layer_1" data-name="Layer 1" xmlns="http://www.w3.org/2000/svg" viewBox="0 0 1458.75 334.79">
  <defs>
    <style>
      .cls-1 {
        fill: #fff;
      }
    </style>
  </defs>
  <path class="cls-1" d="M129.24,22.54v123.56c-.04,37.22-30.21,67.39-67.43,67.43-6.36,0-11.49-5.29-11.23-11.71.25-6.07,5.57-10.71,11.64-10.76,24.64-.22,44.54-20.26,44.54-44.95v-11.18s-.03-.06-.06-.06H22.54c-12.45,0-22.54-10.09-22.54-22.54V22.54C0,10.09,10.09,0,22.54,0h84.16c12.45,0,22.54,10.09,22.54,22.54ZM269.66,0h-84.16c-12.45,0-22.54,10.09-22.54,22.54v89.78c0,12.45,10.09,22.54,22.54,22.54h84.16s.06.03.06.06v11.18c0,24.69-19.9,44.73-44.54,44.95-6.07.05-11.39,4.7-11.64,10.76-.27,6.42,4.86,11.71,11.23,11.71,37.22-.04,67.39-30.21,67.43-67.43V22.54c0-12.45-10.09-22.54-22.54-22.54Z"/>
  <g>
    <path class="cls-1" d="M347.66,0h123.2c74.29,0,123.2,39.5,123.2,104.39v.94c0,71-59.25,107.68-129.31,107.68h-79.94v116.14h-37.15V0ZM466.16,179.15c54.54,0,90.28-29.15,90.28-72.41v-.94c0-47.02-35.27-71.47-88.4-71.47h-83.23v144.83h81.35Z"/>
    <path class="cls-1" d="M623.2,86.05h36.21v63.48c17.87-40.44,53.13-69.59,99.21-67.71v39.03h-2.82c-53.13,0-96.39,38.09-96.39,111.44v96.86h-36.21V86.05Z"/>
    <path class="cls-1" d="M755.8,208.77v-.94c0-68.65,53.6-126.96,126.96-126.96s126.49,57.36,126.49,126.02v.94c0,68.65-54.07,126.96-127.43,126.96s-126.02-57.36-126.02-126.02ZM972.1,208.77v-.94c0-52.19-39.03-94.98-90.28-94.98s-88.87,42.79-88.87,94.04v.94c0,52.19,38.56,94.51,89.81,94.51s89.34-42.32,89.34-93.57Z"/>
    <path class="cls-1" d="M1021.93,298.11l18.34-25.86c26.33,19.75,55.48,31.03,84.17,31.03s50.31-15.05,50.31-38.56v-.94c0-24.45-28.68-33.85-60.66-42.79-38.09-10.81-80.41-23.98-80.41-68.65v-.94c0-41.85,34.8-69.59,82.76-69.59,29.62,0,62.54,10.34,87.46,26.8l-16.46,27.27c-22.57-14.58-48.43-23.51-71.94-23.51-28.68,0-47.02,15.05-47.02,35.27v.94c0,23.04,30.09,31.97,62.54,41.85,37.62,11.29,78.06,25.86,78.06,69.59v.94c0,46.08-38.09,72.88-86.52,72.88-34.8,0-73.35-13.64-100.62-35.74Z"/>
    <path class="cls-1" d="M1351.07,303.29c33.38,0,56.9-13.64,76.64-34.33l22.57,20.22c-24.45,27.27-54.07,45.61-100.15,45.61-66.77,0-121.32-51.25-121.32-126.96,0-70.53,49.37-126.96,116.61-126.96,71.94,0,113.32,57.36,113.32,128.84,0,3.29,0,7.05-.47,12.7h-192.79c5.17,51.25,42.79,80.88,85.58,80.88ZM1422.07,193.26c-4.23-44.2-29.62-81.82-77.58-81.82-41.85,0-73.82,34.8-79,81.82h156.58Z"/>
  </g>
</svg>