<?xml version="1.0" encoding="UTF-8"?>
<svg id="Layer_1" data-name="Layer 1" xmlns="http://www.w3.org/2000/svg" viewBox="0 0 484.25 353.88">
  <defs>
    <style>
      .cls-1 {
        fill: #c9974a;
      }
    </style>
  </defs>
  <path class="cls-1" d="M214.19,37.25v204.88c-.06,61.69-50.06,111.69-111.75,111.75-10.29,0-18.62-8.34-18.62-18.62s8.34-18.62,18.62-18.62c41.15,0,74.5-33.35,74.5-74.5v-18.62H37.25c-20.57,0-37.25-16.68-37.25-37.25V37.25C0,16.68,16.68,0,37.25,0h139.69c20.57,0,37.25,16.68,37.25,37.25ZM447,0h-139.69c-20.57,0-37.25,16.68-37.25,37.25v149c0,20.57,16.68,37.25,37.25,37.25h139.69v18.62c0,41.15-33.35,74.5-74.5,74.5-10.29,0-18.62,8.34-18.62,18.62s8.34,18.62,18.62,18.62c61.69-.06,111.69-50.06,111.75-111.75V37.25c0-20.57-16.68-37.25-37.25-37.25Z"/>
</svg>